<svg aria-hidden="true" style="position: absolute; width: 0; height: 0; overflow: hidden;" version="1.1" xmlns="http://www.w3.org/2000/svg" xmlns:xlink="http://www.w3.org/1999/xlink">
<defs>
<symbol id="icon-arrow-down" viewBox="0 0 32 32">
<path d="M16 4.333c0.552 0 1 0.448 1 1v18.919l6.293-6.293c0.391-0.391 1.024-0.391 1.414 0s0.391 1.024 0 1.414l-8 8c-0.187 0.188-0.442 0.293-0.707 0.293s-0.52-0.105-0.707-0.293l-8-8c-0.391-0.391-0.391-1.024 0-1.414s1.024-0.391 1.414 0l6.293 6.293v-18.919c0-0.552 0.448-1 1-1z"></path>
</symbol>
<symbol id="icon-video" viewBox="0 0 32 32">
<path d="M15.923 1.667h0.153c3.078 0 5.49-0 7.372 0.253 1.926 0.259 3.446 0.799 4.639 1.993s1.733 2.713 1.993 4.639c0.253 1.882 0.253 4.294 0.253 7.372v0.153c0 3.078 0 5.49-0.253 7.372-0.259 1.926-0.799 3.446-1.993 4.639s-2.713 1.733-4.639 1.993c-1.882 0.253-4.294 0.253-7.372 0.253h-0.153c-3.078 0-5.49 0-7.372-0.253-1.926-0.259-3.446-0.799-4.639-1.993s-1.734-2.713-1.993-4.639c-0.253-1.882-0.253-4.294-0.253-7.372v-0.153c0-3.078-0-5.49 0.253-7.372 0.259-1.926 0.799-3.446 1.993-4.639s2.713-1.734 4.639-1.993c1.882-0.253 4.294-0.253 7.372-0.253zM8.333 3.976c-1.42 0.244-2.322 0.666-3.007 1.351s-1.106 1.587-1.351 3.007h4.358v-4.358zM10.333 3.76v4.573h4.667v-4.666c-1.86 0.002-3.388 0.014-4.667 0.093zM17 3.667v4.666h4.667v-4.573c-1.279-0.079-2.806-0.091-4.667-0.093zM23.667 3.976v4.358h4.358c-0.244-1.42-0.666-2.322-1.351-3.007s-1.587-1.106-3.007-1.351zM28.24 10.333h-5.573c-0 0 0 0 0 0s-0.001 0-0.002 0h-6.665c-0 0 0 0 0 0s-0.002 0-0.002 0h-6.664c-0 0-0.001 0-0.001 0s-0.001 0-0.001 0h-5.572c-0.092 1.501-0.093 3.344-0.093 5.667s0.001 4.166 0.093 5.667h24.48c0.092-1.501 0.093-3.344 0.093-5.667s-0.001-4.166-0.093-5.667zM28.024 23.667h-4.358v4.358c1.42-0.244 2.322-0.666 3.007-1.351s1.106-1.587 1.351-3.007zM21.667 28.24v-4.573h-4.667v4.666c1.86-0.002 3.388-0.014 4.667-0.093zM15 28.333v-4.666h-4.667v4.573c1.279 0.079 2.806 0.091 4.667 0.093zM8.333 28.024v-4.358h-4.358c0.244 1.42 0.666 2.322 1.351 3.007s1.587 1.106 3.007 1.351zM17.039 12.998c0.022 0.015 0.045 0.030 0.067 0.045 0.021 0.014 0.041 0.028 0.062 0.042 0.653 0.439 1.237 0.831 1.647 1.209 0.445 0.41 0.852 0.952 0.852 1.707s-0.407 1.297-0.852 1.707c-0.41 0.378-0.994 0.77-1.647 1.209l-0.062 0.041c-0.022 0.015-0.045 0.030-0.067 0.045-0.658 0.442-1.251 0.841-1.748 1.071-0.523 0.242-1.265 0.448-1.976-0.022-0.653-0.432-0.833-1.154-0.907-1.732-0.075-0.585-0.075-1.355-0.075-2.251v-0.137c-0-0.896-0-1.665 0.075-2.251 0.074-0.578 0.254-1.3 0.907-1.732 0.711-0.47 1.453-0.264 1.976-0.022 0.498 0.23 1.090 0.629 1.748 1.071zM14.426 13.73c0.008 0.004 0.017 0.007 0.025 0.011 0.335 0.155 0.792 0.459 1.539 0.961 0.734 0.494 1.186 0.801 1.469 1.061 0.132 0.122 0.183 0.195 0.201 0.227 0.002 0.004 0.003 0.007 0.005 0.009-0.001 0.002-0.003 0.005-0.005 0.009-0.018 0.033-0.069 0.106-0.201 0.227-0.283 0.261-0.735 0.568-1.469 1.061-0.747 0.502-1.205 0.806-1.539 0.961-0.009 0.004-0.017 0.008-0.025 0.011-0.011-0.052-0.023-0.119-0.034-0.204-0.057-0.443-0.059-1.081-0.059-2.065s0.002-1.623 0.059-2.065c0.011-0.085 0.023-0.152 0.034-0.204z"></path>
</symbol>
<symbol id="icon-heart" viewBox="0 0 32 32">
<path d="M16 7.334l-0.721 0.693c0.189 0.196 0.449 0.307 0.721 0.307s0.532-0.111 0.721-0.307l-0.721-0.693zM12.568 24.429c-2.021-1.593-4.231-3.149-5.984-5.123-1.719-1.936-2.918-4.194-2.918-7.124h-2c0 3.554 1.481 6.265 3.422 8.452 1.907 2.148 4.339 3.866 6.241 5.365l1.238-1.571zM3.667 12.183c0-2.868 1.62-5.273 3.833-6.284 2.149-0.982 5.036-0.722 7.78 2.129l1.441-1.387c-3.256-3.383-7.035-3.94-10.053-2.561-2.955 1.351-5.001 4.487-5.001 8.103h2zM11.33 26c0.683 0.538 1.416 1.113 2.159 1.547s1.59 0.787 2.511 0.787v-2c-0.413 0-0.899-0.161-1.502-0.514s-1.229-0.838-1.93-1.391l-1.238 1.571zM20.67 26c1.902-1.5 4.334-3.218 6.241-5.365 1.942-2.186 3.422-4.898 3.422-8.452h-2c0 2.93-1.199 5.188-2.918 7.124-1.753 1.974-3.963 3.53-5.984 5.123l1.238 1.571zM30.333 12.183c0-3.616-2.046-6.752-5.001-8.103-3.018-1.379-6.797-0.822-10.053 2.561l1.441 1.387c2.744-2.851 5.631-3.111 7.78-2.129 2.212 1.011 3.833 3.416 3.833 6.284h2zM19.432 24.429c-0.701 0.553-1.327 1.038-1.93 1.391s-1.089 0.514-1.502 0.514v2c0.921 0 1.768-0.353 2.511-0.787s1.476-1.008 2.159-1.547l-1.238-1.571z"></path>
</symbol>
<symbol id="icon-envelope" viewBox="0 0 32 32">
<path d="M16 20.656l-14-10.656 13.98-7.669 14.020 7.669-14 10.656zM30 28c0 0.203-0.039 0.395-0.095 0.578l-8.97-8.971 9.065-7.232v15.625zM3.556 29.946l9.186-9.186 3.258 2.24 3.258-2.24 9.186 9.186c-0.143 0.033-24.745 0.033-24.888 0v0zM2 28v-15.625l9.066 7.232-8.971 8.971c-0.056-0.183-0.095-0.375-0.095-0.578v0zM16 0l-16 9v19c0 2.209 1.791 4 4 4h24c2.209 0 4-1.791 4-4v-19l-16-9z"></path>
</symbol>
<symbol id="icon-cupcake" viewBox="0 0 32 32">
<path d="M20.667 2.667c0 0 0 0 0 0 2.577 0 4.667 2.089 4.667 4.667 0 0.313-0.031 0.618-0.089 0.914l0.005-0.030-0.020 0.088c2.405 0.82 4.103 3.059 4.103 5.694 0 2.484-1.509 4.616-3.66 5.528l-0.039 0.015-1.448 8.676c-0.109 0.636-0.656 1.114-1.315 1.115h-13.741c-0.659-0-1.206-0.479-1.314-1.107l-0.001-0.008-1.372-8.227c-2.109-0.123-3.773-1.864-3.773-3.994 0-1.732 1.1-3.206 2.64-3.763l0.028-0.009-0.004-0.227c0-0 0-0.001 0-0.002 0-4.418 3.582-8 8-8 1.247 0 2.428 0.285 3.48 0.794l-0.048-0.021c0.845-1.276 2.275-2.105 3.898-2.105 0.001 0 0.002 0 0.003 0h-0zM12 20h-2.853l1.112 6.667h1.741v-6.667zM17.333 20h-2.667v6.667h2.667v-6.667zM22.852 20h-2.852v6.667h1.74l1.112-6.667zM13.333 6.667c-2.856 0-5.188 2.245-5.327 5.023l-0.007 0.263 0.004 0.227c0 0.014 0 0.031 0 0.048 0 1.080-0.642 2.010-1.565 2.429l-0.017 0.007-0.2 0.079c-0.521 0.19-0.887 0.681-0.887 1.257 0 0.736 0.595 1.333 1.331 1.335h16.667c1.841 0 3.333-1.492 3.333-3.333s-1.492-3.333-3.333-3.333c-0.46 0-0.898 0.093-1.297 0.262l0.022-0.008-0.233 0.108c-0.355 0.187-0.775 0.296-1.221 0.296-0.996 0-1.864-0.546-2.322-1.355l-0.007-0.013-0.093-0.183c-0.864-1.849-2.708-3.107-4.846-3.107-0.001 0-0.001 0-0.002 0h0zM20.667 5.333c-0 0-0 0-0 0-0.725 0-1.36 0.386-1.711 0.963l-0.005 0.009c0.672 0.662 1.227 1.44 1.633 2.303l0.021 0.049c0.592-0.304 1.24-0.512 1.928-0.604 0.085-0.214 0.134-0.461 0.134-0.72 0-1.104-0.895-2-1.999-2h-0z"></path>
</symbol>
<symbol id="icon-cake" viewBox="0 0 32 32">
<path d="M16.964 3.706c0.083 0.084 0.171 0.162 0.263 0.235l0.006 0.005 7.913 4.788c1.46 0.873 2.953 1.692 4.419 2.556 0.346 0.224 0.675 0.475 0.983 0.749 0.104 0.085 0.237 0.207 0.248 0.322 0.061 0.663 0.569 1.245 0.317 1.974-0.092 0.266-0.028 0.591-0.015 0.889l0.546 12.834c0.022 0.55-0.052 1.103-0.066 1.655-0.006 0.176 0.019 0.352 0.072 0.521 0.199 0.607-0.007 1.112-0.611 1.317-0.274 0.089-0.589 0.14-0.917 0.14-0.011 0-0.022-0-0.033-0h0.002l-12.162 0.066-9.191 0.019c-2.141-0.017-4.28-0.12-6.42-0.175-0.531-0.014-0.853-0.198-1.102-0.731-0.286-0.601-0.443-1.254-0.462-1.919l-0.392-12.014c-0.024-0.782 0.005-1.565 0.012-2.348-0.007-0.114 0.005-0.229 0.035-0.34 0.487-1.36 0.914-2.745 1.485-4.068 1.393-3.276 3.506-6.197 6.183-8.543 0.478-0.411 1.007-0.797 1.566-1.141l0.054-0.031c0.683-0.425 0.951-0.361 1.573 0.159 0.236 0.189 0.502 0.363 0.783 0.511l0.027 0.013 2.973 1.612c0.347 0.196 0.579 0.165 0.926-0.057 0.66-0.421 1.45-0.861 2.264-1.257l0.146-0.064c0.233-0.11 0.507-0.174 0.796-0.174 0.049 0 0.097 0.002 0.145 0.005l-0.006-0c0.215 0.015 0.529 0.179 0.593 0.353 0.064 0.17-0.072 0.5-0.227 0.647-0.242 0.23-0.569 0.379-0.871 0.539l-1.855 0.952zM28.741 12.987c-4.358-2.66-8.516-5.565-12.957-8.029-0.131 0.153-0.21 0.234-0.277 0.326-0.079 0.108-0.147 0.225-0.249 0.384 0.189 0.155 0.359 0.311 0.52 0.476l0.001 0.001c1.137 1.293 1.078 3.466-0.2 4.483-1.118 0.889-2.434 1.301-3.879 1.084-1.147-0.172-1.876-1.007-1.962-2.165-0.155-2.068 1.434-4.118 3.48-4.365 0.648-0.078 1.002-0.339 1.223-0.913l-4.449-2.677c-3.643 3.237-6.217 7.235-7.541 12.063 1.699 0.201 24.019-0.26 26.292-0.668zM1.99 15.332c-0.094 0.364 0.118 3.38 0.316 4.033 1.227 0 2.468 0.046 3.704-0.009l9.107-0.486 14.204-0.859v-3.015l-13.636 0.346c-4.558 0.056-9.118-0.002-13.695-0.010zM29.439 26.059l-26.765 0.644 0.111 1.708 0.061 1.683c1.894 0.229 25.735-0.261 26.72-0.55l-0.127-3.484v-0zM22.222 24.346l2.765 0.001c0.44 0.002 0.797-0.080 0.953-0.579 0.064-0.205 0.265-0.37 0.413-0.546l2.44-2.907c0.105-0.125 0.187-0.269 0.323-0.471l-4.434 0.338c-0.31 0.021-0.498 0.115-0.62 0.425-0.185 0.469-0.429 0.916-0.654 1.368l-1.186 2.372zM14.504 24.681l2.569-4.059-4.17 0.195c-0.298 0.012-0.438 0.162-0.562 0.414l-1.642 3.262c-0.038 0.090-0.077 0.204-0.11 0.321l-0.005 0.022 3.922-0.155zM20.409 24.499c0.457-1.54 1.559-2.702 2.297-4.187l-3.981 0.21-2.293 4.096 3.977-0.119zM8.557 24.937l2.45-4.042-3.303 0.165c-0.174 0.013-0.383 0.225-0.486 0.398-0.468 0.789-0.902 1.597-1.35 2.396l-0.714 1.244 3.402-0.162zM11.042 8.915c-0.015 1.029 0.424 1.499 1.281 1.446 0.726-0.046 1.391-0.277 1.957-0.646l-0.016 0.010c0.564-0.358 0.666-0.915 0.589-1.51-0.050-0.577-0.45-1.049-0.984-1.205l-0.010-0.002c-0.768-0.227-1.552-0.013-2.186 0.361-0.545 0.32-0.561 1.059-0.631 1.548h0zM6.080 21.056h-3.71l0.239 4.003c0.82 0.14 0.799 0.129 1.141-0.464 0.355-0.616 0.747-1.212 1.138-1.806 0.352-0.535 0.724-1.055 1.192-1.733h0zM29.323 23.946v-1.93l-0.128-0.030-1.426 2.126 1.554-0.166z"></path>
</symbol>
<symbol id="icon-audio" viewBox="0 0 32 32">
<path d="M18.824 1.883v28.236h-3.213l-7.53-7.53h-5.258c-1.557 0-2.824-1.267-2.824-2.824v-7.53c0-1.557 1.267-2.824 2.824-2.824h5.258l7.53-7.53h3.213zM16.941 3.766h-0.552l-6.978 6.978v10.515l6.978 6.978h0.552v-24.471zM27.866 6.018c2.665 2.667 4.134 6.212 4.134 9.984 0 3.77-1.468 7.315-4.134 9.982l-1.331-1.331c2.312-2.312 3.582-5.384 3.582-8.651 0-3.27-1.271-6.342-3.582-8.653zM23.881 10.013c1.594 1.617 2.472 3.744 2.472 5.988s-0.877 4.371-2.472 5.988l-1.342-1.321c1.246-1.263 1.931-2.92 1.931-4.666s-0.685-3.403-1.931-4.666zM7.53 11.295h-4.706c-0.518 0-0.941 0.422-0.941 0.941v7.53c0 0.52 0.424 0.941 0.941 0.941h4.706v-9.412z"></path>
</symbol>
</defs>
</svg>
